<?xml version="1.0" encoding="UTF-8" standalone="no"?>
<!-- Created with Inkscape (http://www.inkscape.org/) -->

<svg
   xmlns:dc="http://purl.org/dc/elements/1.1/"
   xmlns:cc="http://creativecommons.org/ns#"
   xmlns:rdf="http://www.w3.org/1999/02/22-rdf-syntax-ns#"
   xmlns:svg="http://www.w3.org/2000/svg"
   xmlns="http://www.w3.org/2000/svg"
   xmlns:xlink="http://www.w3.org/1999/xlink"
   xmlns:sodipodi="http://sodipodi.sourceforge.net/DTD/sodipodi-0.dtd"
   xmlns:inkscape="http://www.inkscape.org/namespaces/inkscape"
   width="70"
   height="70"
   id="svg2"
   version="1.1"
   inkscape:version="0.48.1 r9760"
   sodipodi:docname="shield.svg"
   inkscape:export-filename="shield.png"
   inkscape:export-xdpi="90"
   inkscape:export-ydpi="90"
   style="display:inline">
  <defs
     id="defs4">
    <linearGradient
       id="linearGradient3799">
      <stop
         style="stop-color:#ffffff;stop-opacity:0;"
         offset="0"
         id="stop3801" />
      <stop
         id="stop3807"
         offset="0.33293641"
         style="stop-color:#ffffff;stop-opacity:0;" />
      <stop
         style="stop-color:#ffffff;stop-opacity:0.4326241;"
         offset="0.45964849"
         id="stop3809" />
      <stop
         style="stop-color:#ffffff;stop-opacity:1;"
         offset="1"
         id="stop3803" />
    </linearGradient>
    <linearGradient
       inkscape:collect="always"
       id="linearGradient3897">
      <stop
         style="stop-color:#d5e5ff;stop-opacity:1;"
         offset="0"
         id="stop3899" />
      <stop
         style="stop-color:#d5e5ff;stop-opacity:0;"
         offset="1"
         id="stop3901" />
    </linearGradient>
    <filter
       inkscape:collect="always"
       id="filter3794">
      <feGaussianBlur
         inkscape:collect="always"
         stdDeviation="1.7"
         id="feGaussianBlur3796" />
    </filter>
    <linearGradient
       inkscape:collect="always"
       xlink:href="#linearGradient3897"
       id="linearGradient3903"
       x1="56.40625"
       y1="76.75"
       x2="56.40625"
       y2="58.1875"
       gradientUnits="userSpaceOnUse"
       gradientTransform="matrix(-1,0,0,1,150.25,-42)" />
    <linearGradient
       inkscape:collect="always"
       xlink:href="#linearGradient3897"
       id="linearGradient3907"
       gradientUnits="userSpaceOnUse"
       x1="56.40625"
       y1="76.75"
       x2="56.40625"
       y2="58.1875"
       gradientTransform="matrix(-1,0,0,-1,150.05831,29.855731)" />
    <linearGradient
       inkscape:collect="always"
       xlink:href="#linearGradient3897"
       id="linearGradient3003"
       gradientUnits="userSpaceOnUse"
       gradientTransform="matrix(0,-1,1,0,79.08956,29.136981)"
       x1="56.40625"
       y1="76.75"
       x2="56.40625"
       y2="58.1875" />
    <linearGradient
       inkscape:collect="always"
       xlink:href="#linearGradient3897"
       id="linearGradient3007"
       gradientUnits="userSpaceOnUse"
       gradientTransform="matrix(0,-1,-1,0,150.77706,29.136981)"
       x1="56.40625"
       y1="76.75"
       x2="56.40625"
       y2="58.1875" />
    <radialGradient
       inkscape:collect="always"
       xlink:href="#linearGradient3799"
       id="radialGradient3805"
       cx="34.25"
       cy="34.75"
       fx="34.25"
       fy="34.75"
       r="32"
       gradientUnits="userSpaceOnUse"
       gradientTransform="matrix(2.0000143,3.7643132e-8,-3.828125e-8,2.0339181,-34.25049,-35.928654)" />
    <radialGradient
       inkscape:collect="always"
       xlink:href="#linearGradient3799"
       id="radialGradient3813"
       gradientUnits="userSpaceOnUse"
       gradientTransform="matrix(2.0000143,3.7643132e-8,-3.828125e-8,2.0339181,-34.25049,-35.928654)"
       cx="34.25"
       cy="34.75"
       fx="34.25"
       fy="34.75"
       r="32" />
  </defs>
  <sodipodi:namedview
     id="base"
     pagecolor="#ffffff"
     bordercolor="#666666"
     borderopacity="1.0"
     inkscape:pageopacity="0.0"
     inkscape:pageshadow="2"
     inkscape:zoom="4"
     inkscape:cx="48.798934"
     inkscape:cy="56.776532"
     inkscape:document-units="px"
     inkscape:current-layer="layer2"
     showgrid="false"
     inkscape:showpageshadow="false"
     inkscape:window-width="1440"
     inkscape:window-height="833"
     inkscape:window-x="0"
     inkscape:window-y="0"
     inkscape:window-maximized="1"
     showguides="true"
     inkscape:guide-bbox="true"
     inkscape:snap-bbox="true"
     inkscape:bbox-nodes="true"
     inkscape:snap-global="false"
     inkscape:bbox-paths="false" />
  <metadata
     id="metadata7">
    <rdf:RDF>
      <cc:Work
         rdf:about="">
        <dc:format>image/svg+xml</dc:format>
        <dc:type
           rdf:resource="http://purl.org/dc/dcmitype/StillImage" />
        <dc:title></dc:title>
      </cc:Work>
    </rdf:RDF>
  </metadata>
  <g
     inkscape:groupmode="layer"
     id="layer1"
     inkscape:label="bg (ignore)"
     sodipodi:insensitive="true"
     style="display:none">
    <rect
       style="fill:#4d4d4d;fill-opacity:1;stroke:none"
       id="rect3001"
       width="70"
       height="70"
       x="0"
       y="0" />
  </g>
  <g
     inkscape:groupmode="layer"
     id="layer2"
     inkscape:label="0001"
     style="display:inline"
     transform="translate(0,41)">
    <path
       inkscape:connector-curvature="0"
       id="path3008"
       d="M 35,-40 C 16.222319,-40 1,-24.777681 1,-6 1,12.777681 16.222319,28 35,28 53.777681,28 69,12.777681 69,-6 69,-24.777681 53.777681,-40 35,-40 z m 0,1 c 18.225396,0 33,14.774604 33,33 C 68,12.225396 53.225396,27 35,27 16.774604,27 2,12.225396 2,-6 2,-24.225396 16.774604,-39 35,-39 z"
       style="fill:#ffffff;fill-opacity:1;stroke:none;filter:url(#filter3794)" />
    <path
       style="fill:#ffffff;fill-opacity:1;stroke:none"
       d="M 35,-40 C 16.222319,-40 1,-24.777681 1,-6 1,12.777681 16.222319,28 35,28 53.777681,28 69,12.777681 69,-6 69,-24.777681 53.777681,-40 35,-40 z m 0,1 c 18.225396,0 33,14.774604 33,33 C 68,12.225396 53.225396,27 35,27 16.774604,27 2,12.225396 2,-6 2,-24.225396 16.774604,-39 35,-39 z"
       id="path3003"
       inkscape:connector-curvature="0" />
    <path
       sodipodi:type="arc"
       style="fill:#ffffff;fill-opacity:1;stroke:none"
       id="path3909"
       sodipodi:cx="14.318913"
       sodipodi:cy="20.060583"
       sodipodi:rx="4.0658641"
       sodipodi:ry="2.032932"
       d="m 18.384778,20.060583 a 4.0658641,2.032932 0 1 1 -8.131729,0 4.0658641,2.032932 0 1 1 8.131729,0 z"
       transform="matrix(0.35231632,-0.26372554,0.26372554,0.35231632,3.091579,-29.914119)" />
    <g
       id="g3023"
       transform="translate(-80,0)">
      <path
         inkscape:connector-curvature="0"
         id="path3881"
         d="M 139.40625,16.1875 C 133.3101,22.535763 124.74636,26.5 115.25,26.5 c -8.14227,0 -15.6007,-2.920118 -21.40625,-7.75 5.61112,2.229076 7.99928,0.76986 12.40625,-1.25 6,-2.75 9.75,-0.5 18.25,2.75 4.58201,1.751946 10.45022,-1.086162 14.90625,-4.0625 z"
         style="fill:url(#linearGradient3903);fill-opacity:1;stroke:none" />
      <path
         inkscape:connector-curvature="0"
         style="fill:url(#linearGradient3907);fill-opacity:1;stroke:none"
         d="m 139.21456,-28.331769 c -6.09615,-6.348263 -14.65989,-10.3125 -24.15625,-10.3125 -8.14227,0 -15.6007,2.920118 -21.40625,7.75 5.61112,-2.229076 7.99929,-0.76986 12.40625,1.25 6,2.75 9.75,0.5 18.25,-2.75 4.58202,-1.751946 10.45022,1.086162 14.90625,4.0625 z"
         id="path3905" />
      <path
         id="path3001"
         d="m 137.27706,18.293231 c 6.34827,-6.096155 10.3125,-14.659892 10.3125,-24.15625 0,-8.142272 -2.92012,-15.6007 -7.75,-21.40625 2.22908,5.611117 0.76986,7.999284 -1.25,12.40625 -2.75,6 -0.5,9.75 2.75,18.25 1.75195,4.582013 -1.08616,10.450222 -4.0625,14.90625 z"
         style="fill:url(#linearGradient3003);fill-opacity:1;stroke:none"
         inkscape:connector-curvature="0" />
      <path
         inkscape:connector-curvature="0"
         style="fill:url(#linearGradient3007);fill-opacity:1;stroke:none"
         d="M 92.58956,18.293231 C 86.2413,12.197076 82.27706,3.633339 82.27706,-5.863019 c 0,-8.142272 2.92012,-15.6007 7.75,-21.40625 -2.22907,5.611117 -0.76986,7.999284 1.25,12.40625 2.75,6 0.5,9.75 -2.75,18.25 -1.75194,4.582013 1.08617,10.450222 4.0625,14.90625 z"
         id="path3005" />
    </g>
    <path
       transform="matrix(0.9921875,0,0,0.9921875,-98.982422,-40.478515)"
       d="m 66.25,34.75 a 32,32 0 1 1 -64,0 32,32 0 1 1 64,0 z"
       sodipodi:ry="32"
       sodipodi:rx="32"
       sodipodi:cy="34.75"
       sodipodi:cx="34.25"
       id="path3811"
       style="opacity:0.5515464;fill:url(#radialGradient3813);fill-opacity:1;stroke:none"
       sodipodi:type="arc" />
  </g>
</svg>
