<?xml version="1.0" encoding="UTF-8" standalone="no"?>
<!-- Created with Inkscape (http://www.inkscape.org/) -->

<svg
   xmlns:dc="http://purl.org/dc/elements/1.1/"
   xmlns:cc="http://creativecommons.org/ns#"
   xmlns:rdf="http://www.w3.org/1999/02/22-rdf-syntax-ns#"
   xmlns:svg="http://www.w3.org/2000/svg"
   xmlns="http://www.w3.org/2000/svg"
   xmlns:xlink="http://www.w3.org/1999/xlink"
   xmlns:sodipodi="http://sodipodi.sourceforge.net/DTD/sodipodi-0.dtd"
   xmlns:inkscape="http://www.inkscape.org/namespaces/inkscape"
   width="29"
   height="29"
   id="svg2"
   version="1.1"
   inkscape:version="0.48.1 r9760"
   sodipodi:docname="bomb.svg"
   inkscape:export-filename="bomb-3.png"
   inkscape:export-xdpi="90"
   inkscape:export-ydpi="90">
  <defs
     id="defs4">
    <linearGradient
       id="linearGradient3859-0">
      <stop
         style="stop-color:#aec9cb;stop-opacity:1;"
         offset="0"
         id="stop3861-4" />
      <stop
         id="stop3867-9"
         offset="0.5"
         style="stop-color:#000000;stop-opacity:1;" />
      <stop
         style="stop-color:#aec9cb;stop-opacity:1;"
         offset="1"
         id="stop3863-4" />
    </linearGradient>
    <filter
       inkscape:collect="always"
       id="filter4030-2"
       x="-0.4199245"
       width="1.839849"
       y="-1.1547923"
       height="3.3095846"
       color-interpolation-filters="sRGB">
      <feGaussianBlur
         inkscape:collect="always"
         stdDeviation="0.36453639"
         id="feGaussianBlur4032-1" />
    </filter>
    <linearGradient
       inkscape:collect="always"
       xlink:href="#linearGradient3859-0"
       id="linearGradient4175"
       gradientUnits="userSpaceOnUse"
       gradientTransform="matrix(1,0,0,1.2465753,-0.3214283,-3.6755)"
       x1="7.2321424"
       y1="17.839287"
       x2="7.2321424"
       y2="11.321429" />
    <linearGradient
       id="linearGradient3859-05">
      <stop
         style="stop-color:#aec9cb;stop-opacity:1;"
         offset="0"
         id="stop3861-1" />
      <stop
         id="stop3867-4"
         offset="0.5"
         style="stop-color:#000000;stop-opacity:1;" />
      <stop
         style="stop-color:#aec9cb;stop-opacity:1;"
         offset="1"
         id="stop3863-7" />
    </linearGradient>
    <filter
       inkscape:collect="always"
       id="filter4030-6"
       x="-0.4199245"
       width="1.839849"
       y="-1.1547923"
       height="3.3095846"
       color-interpolation-filters="sRGB">
      <feGaussianBlur
         inkscape:collect="always"
         stdDeviation="0.36453639"
         id="feGaussianBlur4032-5" />
    </filter>
    <linearGradient
       inkscape:collect="always"
       xlink:href="#linearGradient3859-05"
       id="linearGradient4227"
       gradientUnits="userSpaceOnUse"
       gradientTransform="matrix(1,0,0,1.2465753,-0.3214283,-3.6755)"
       x1="7.2321424"
       y1="17.839287"
       x2="7.2321424"
       y2="11.321429" />
    <linearGradient
       id="linearGradient3859-5">
      <stop
         style="stop-color:#aec9cb;stop-opacity:1;"
         offset="0"
         id="stop3861-5" />
      <stop
         id="stop3867-5"
         offset="0.5"
         style="stop-color:#000000;stop-opacity:1;" />
      <stop
         style="stop-color:#aec9cb;stop-opacity:1;"
         offset="1"
         id="stop3863-6" />
    </linearGradient>
    <filter
       inkscape:collect="always"
       id="filter4030-0"
       x="-0.4199245"
       width="1.839849"
       y="-1.1547923"
       height="3.3095846"
       color-interpolation-filters="sRGB">
      <feGaussianBlur
         inkscape:collect="always"
         stdDeviation="0.36453639"
         id="feGaussianBlur4032-3" />
    </filter>
    <linearGradient
       inkscape:collect="always"
       xlink:href="#linearGradient3859-5"
       id="linearGradient4320"
       gradientUnits="userSpaceOnUse"
       gradientTransform="matrix(1,0,0,1.2465753,-0.3214283,-3.6755)"
       x1="7.2321424"
       y1="17.839287"
       x2="7.2321424"
       y2="11.321429" />
  </defs>
  <sodipodi:namedview
     id="base"
     pagecolor="#ffffff"
     bordercolor="#666666"
     borderopacity="1.0"
     inkscape:pageopacity="0.0"
     inkscape:pageshadow="2"
     inkscape:zoom="5.6568542"
     inkscape:cx="15.528206"
     inkscape:cy="40.592554"
     inkscape:document-units="px"
     inkscape:current-layer="layer4"
     showgrid="false"
     inkscape:showpageshadow="false"
     inkscape:window-width="1440"
     inkscape:window-height="833"
     inkscape:window-x="0"
     inkscape:window-y="0"
     inkscape:window-maximized="1"
     showguides="true"
     inkscape:guide-bbox="true"
     inkscape:snap-bbox="true"
     inkscape:bbox-nodes="true"
     inkscape:snap-global="true"
     inkscape:bbox-paths="false" />
  <metadata
     id="metadata7">
    <rdf:RDF>
      <cc:Work
         rdf:about="">
        <dc:format>image/svg+xml</dc:format>
        <dc:type
           rdf:resource="http://purl.org/dc/dcmitype/StillImage" />
        <dc:title />
      </cc:Work>
    </rdf:RDF>
  </metadata>
  <g
     inkscape:label="bg"
     inkscape:groupmode="layer"
     id="layer1"
     transform="translate(0,-1023.3622)"
     sodipodi:insensitive="true"
     style="display:none">
    <rect
       style="fill:#999999;fill-opacity:1;stroke:none"
       id="rect4066"
       width="29"
       height="29"
       x="0"
       y="1023.3622" />
  </g>
  <g
     inkscape:groupmode="layer"
     id="layer2"
     inkscape:label="0001"
     sodipodi:insensitive="true"
     style="display:inline">
    <path
       inkscape:connector-curvature="0"
       style="fill:#000000;fill-opacity:1;stroke:none"
       d="M 12.90625,10.34375 C 9.2936915,10.739459 6.5625,12.449237 6.5625,14.5 c 0,2.085111 2.8265246,3.797888 6.53125,4.15625 l 1.5625,-1.40625 1.53125,1.40625 c 3.567561,-0.41611 6.25,-2.123303 6.25,-4.15625 0,-2.038886 -2.699982,-3.747718 -6.28125,-4.15625 l -1.5,1.375 -1.5625,-1.375 c -0.061,0.0059 -0.126994,-0.0066 -0.1875,0 z"
       id="path3869" />
    <path
       inkscape:connector-curvature="0"
       style="fill:url(#linearGradient4175);fill-opacity:1;stroke:none"
       d="m 13.28125,10.5 c -3.609383,0.313319 -6.375,1.979429 -6.375,4 0,2.020571 2.7648969,3.686681 6.375,4 l 1.375,-1.25 L 16,18.46875 c 3.474174,-0.37257 6.09375,-1.999848 6.09375,-3.96875 0,-1.974604 -2.636647,-3.602482 -6.125,-3.96875 l -1.3125,1.1875 -1.375,-1.21875 z"
       id="path3012" />
    <path
       inkscape:connector-curvature="0"
       id="path3890"
       d="m 14.651786,11.73 0,5.5386 1.361607,1.228 0,-8.0846 z"
       style="fill:#4d4d4d;fill-opacity:1;stroke:none"
       sodipodi:nodetypes="ccccc"
       inkscape:transform-center-x="-0.6808035" />
    <path
       inkscape:transform-center-x="0.6808035"
       sodipodi:nodetypes="ccccc"
       style="fill:#000000;fill-opacity:1;stroke:none"
       d="m 14.651786,11.73 0,5.5386 -1.361607,1.228 0,-8.0846 z"
       id="path3914"
       inkscape:connector-curvature="0" />
    <path
       id="path3089"
       d="m 14.5,12.9375 c -0.406101,0 -0.798667,0.011 -1.1875,0.024 l 0,3.077 c 0.388833,0.013 0.781399,0.024 1.1875,0.024 0.502626,0 0.993326,-0.017 1.46875,-0.036 l 0,-3.0528 C 15.493326,12.9547 15.002626,12.9377 14.5,12.9377 z"
       style="fill:#87cdde;fill-opacity:1;stroke:none"
       inkscape:connector-curvature="0" />
    <path
       sodipodi:type="arc"
       style="fill:#ffffff;fill-opacity:1;stroke:none"
       id="path3918"
       sodipodi:cx="14.584078"
       sodipodi:cy="14.573759"
       sodipodi:rx="1.0417198"
       sodipodi:ry="0.37880722"
       d="m 15.625798,14.573759 a 1.0417198,0.37880722 0 1 1 -2.08344,0 1.0417198,0.37880722 0 1 1 2.08344,0 z" />
    <path
       transform="matrix(3.9767799,0,0,1,-43.41359,0)"
       d="m 15.625798,14.573759 a 1.0417198,0.37880722 0 1 1 -2.08344,0 1.0417198,0.37880722 0 1 1 2.08344,0 z"
       sodipodi:ry="0.37880722"
       sodipodi:rx="1.0417198"
       sodipodi:cy="14.573759"
       sodipodi:cx="14.584078"
       id="path3920"
       style="fill:#ffffff;fill-opacity:1;stroke:none;filter:url(#filter4030-2)"
       sodipodi:type="arc" />
    <path
       sodipodi:type="arc"
       style="fill:#ffffff;fill-opacity:1;stroke:none;filter:url(#filter4030-2)"
       id="path4034"
       sodipodi:cx="14.584078"
       sodipodi:cy="14.573759"
       sodipodi:rx="1.0417198"
       sodipodi:ry="0.37880722"
       d="m 15.625798,14.573759 a 1.0417198,0.37880722 0 1 1 -2.08344,0 1.0417198,0.37880722 0 1 1 2.08344,0 z"
       transform="matrix(0,-1.8595007,1,0,0.01031908,41.6928)" />
  </g>
  <g
     inkscape:groupmode="layer"
     id="layer3"
     inkscape:label="0002"
     style="display:none"
     sodipodi:insensitive="true">
    <path
       inkscape:connector-curvature="0"
       style="fill:#000000;fill-opacity:1;stroke:none"
       d="M 12.90625,10.34375 C 9.2936915,10.739459 6.5625,12.449237 6.5625,14.5 c 0,2.085111 2.8265246,3.797888 6.53125,4.15625 l 1.5625,-1.40625 1.53125,1.40625 c 3.567561,-0.41611 6.25,-2.123303 6.25,-4.15625 0,-2.038886 -2.699982,-3.747718 -6.28125,-4.15625 l -1.5,1.375 -1.5625,-1.375 c -0.061,0.0059 -0.126994,-0.0066 -0.1875,0 z"
       id="path3869-5" />
    <path
       inkscape:connector-curvature="0"
       style="fill:url(#linearGradient4227);fill-opacity:1;stroke:none"
       d="m 13.28125,10.5 c -3.609383,0.313319 -6.375,1.979429 -6.375,4 0,2.020571 2.7648969,3.686681 6.375,4 l 1.375,-1.25 L 16,18.46875 c 3.474174,-0.37257 6.09375,-1.999848 6.09375,-3.96875 0,-1.974604 -2.636647,-3.602482 -6.125,-3.96875 l -1.3125,1.1875 -1.375,-1.21875 z"
       id="path3012-8" />
    <path
       inkscape:connector-curvature="0"
       id="path3890-2"
       d="m 14.651786,11.73 0,5.5386 1.361607,1.228 0,-8.0846 z"
       style="fill:#4d4d4d;fill-opacity:1;stroke:none"
       sodipodi:nodetypes="ccccc"
       inkscape:transform-center-x="-0.6808035" />
    <path
       inkscape:transform-center-x="0.6808035"
       sodipodi:nodetypes="ccccc"
       style="fill:#000000;fill-opacity:1;stroke:none"
       d="m 14.651786,11.73 0,5.5386 -1.361607,1.228 0,-8.0846 z"
       id="path3914-8"
       inkscape:connector-curvature="0" />
    <path
       id="path3089-7"
       d="m 14.5,16.9375 c -0.406101,0 -0.798667,0.011 -1.1875,0.024 l 0,3.077 c 0.388833,0.013 0.781399,0.024 1.1875,0.024 0.502626,0 0.993326,-0.017 1.46875,-0.036 l 0,-3.0528 C 15.493326,16.9547 15.002626,16.9377 14.5,16.9377 z"
       style="fill:#87cdde;fill-opacity:1;stroke:none"
       inkscape:connector-curvature="0" />
    <path
       sodipodi:type="arc"
       style="fill:#ffffff;fill-opacity:1;stroke:none"
       id="path3918-3"
       sodipodi:cx="14.584078"
       sodipodi:cy="14.573759"
       sodipodi:rx="1.0417198"
       sodipodi:ry="0.37880722"
       d="m 15.625798,14.573759 a 1.0417198,0.37880722 0 1 1 -2.08344,0 1.0417198,0.37880722 0 1 1 2.08344,0 z"
       transform="translate(0,4)" />
    <path
       transform="matrix(3.9767799,0,0,1,-43.41359,4)"
       d="m 15.625798,14.573759 a 1.0417198,0.37880722 0 1 1 -2.08344,0 1.0417198,0.37880722 0 1 1 2.08344,0 z"
       sodipodi:ry="0.37880722"
       sodipodi:rx="1.0417198"
       sodipodi:cy="14.573759"
       sodipodi:cx="14.584078"
       id="path3920-0"
       style="fill:#ffffff;fill-opacity:1;stroke:none;filter:url(#filter4030-6)"
       sodipodi:type="arc" />
    <path
       sodipodi:type="arc"
       style="fill:#ffffff;fill-opacity:1;stroke:none;filter:url(#filter4030-6)"
       id="path4034-7"
       sodipodi:cx="14.584078"
       sodipodi:cy="14.573759"
       sodipodi:rx="1.0417198"
       sodipodi:ry="0.37880722"
       d="m 15.625798,14.573759 a 1.0417198,0.37880722 0 1 1 -2.08344,0 1.0417198,0.37880722 0 1 1 2.08344,0 z"
       transform="matrix(0,-1.8595007,1,0,0.01031908,45.6928)" />
  </g>
  <g
     inkscape:groupmode="layer"
     id="layer4"
     inkscape:label="0003"
     style="display:none"
     sodipodi:insensitive="true">
    <path
       inkscape:connector-curvature="0"
       style="fill:#000000;fill-opacity:1;stroke:none"
       d="M 12.90625,10.34375 C 9.2936915,10.739459 6.5625,12.449237 6.5625,14.5 c 0,2.085111 2.8265246,3.797888 6.53125,4.15625 l 1.5625,-1.40625 1.53125,1.40625 c 3.567561,-0.41611 6.25,-2.123303 6.25,-4.15625 0,-2.038886 -2.699982,-3.747718 -6.28125,-4.15625 l -1.5,1.375 -1.5625,-1.375 c -0.061,0.0059 -0.126994,-0.0066 -0.1875,0 z"
       id="path3869-8" />
    <path
       inkscape:connector-curvature="0"
       style="fill:url(#linearGradient4320);fill-opacity:1;stroke:none"
       d="m 13.28125,10.5 c -3.609383,0.313319 -6.375,1.979429 -6.375,4 0,2.020571 2.7648969,3.686681 6.375,4 l 1.375,-1.25 L 16,18.46875 c 3.474174,-0.37257 6.09375,-1.999848 6.09375,-3.96875 0,-1.974604 -2.636647,-3.602482 -6.125,-3.96875 l -1.3125,1.1875 -1.375,-1.21875 z"
       id="path3012-4" />
    <path
       inkscape:connector-curvature="0"
       id="path3890-3"
       d="m 14.651786,11.73 0,5.5386 1.361607,1.228 0,-8.0846 z"
       style="fill:#4d4d4d;fill-opacity:1;stroke:none"
       sodipodi:nodetypes="ccccc"
       inkscape:transform-center-x="-0.6808035" />
    <path
       inkscape:transform-center-x="0.6808035"
       sodipodi:nodetypes="ccccc"
       style="fill:#000000;fill-opacity:1;stroke:none"
       d="m 14.651786,11.73 0,5.5386 -1.361607,1.228 0,-8.0846 z"
       id="path3914-3"
       inkscape:connector-curvature="0" />
    <path
       id="path3089-79"
       d="m 14.5,8.9375 c -0.406101,0 -0.798667,0.011 -1.1875,0.024 l 0,3.077 c 0.388833,0.013 0.781399,0.024 1.1875,0.024 0.502626,0 0.993326,-0.017 1.46875,-0.036 l 0,-3.0528 C 15.493326,8.9547 15.002626,8.9377 14.5,8.9377 z"
       style="fill:#87cdde;fill-opacity:1;stroke:none"
       inkscape:connector-curvature="0" />
    <path
       sodipodi:type="arc"
       style="fill:#ffffff;fill-opacity:1;stroke:none"
       id="path3918-0"
       sodipodi:cx="14.584078"
       sodipodi:cy="14.573759"
       sodipodi:rx="1.0417198"
       sodipodi:ry="0.37880722"
       d="m 15.625798,14.573759 a 1.0417198,0.37880722 0 1 1 -2.08344,0 1.0417198,0.37880722 0 1 1 2.08344,0 z"
       transform="translate(0,-4)" />
    <path
       transform="matrix(3.9767799,0,0,1,-43.41359,-4)"
       d="m 15.625798,14.573759 a 1.0417198,0.37880722 0 1 1 -2.08344,0 1.0417198,0.37880722 0 1 1 2.08344,0 z"
       sodipodi:ry="0.37880722"
       sodipodi:rx="1.0417198"
       sodipodi:cy="14.573759"
       sodipodi:cx="14.584078"
       id="path3920-7"
       style="fill:#ffffff;fill-opacity:1;stroke:none;filter:url(#filter4030-0)"
       sodipodi:type="arc" />
    <path
       sodipodi:type="arc"
       style="fill:#ffffff;fill-opacity:1;stroke:none;filter:url(#filter4030-0)"
       id="path4034-6"
       sodipodi:cx="14.584078"
       sodipodi:cy="14.573759"
       sodipodi:rx="1.0417198"
       sodipodi:ry="0.37880722"
       d="m 15.625798,14.573759 a 1.0417198,0.37880722 0 1 1 -2.08344,0 1.0417198,0.37880722 0 1 1 2.08344,0 z"
       transform="matrix(0,-1.8595007,1,0,0.01031908,37.6928)" />
  </g>
</svg>
