<?xml version="1.0" encoding="UTF-8" standalone="no"?>
<!-- Created with Inkscape (http://www.inkscape.org/) -->

<svg
   xmlns:dc="http://purl.org/dc/elements/1.1/"
   xmlns:cc="http://creativecommons.org/ns#"
   xmlns:rdf="http://www.w3.org/1999/02/22-rdf-syntax-ns#"
   xmlns:svg="http://www.w3.org/2000/svg"
   xmlns="http://www.w3.org/2000/svg"
   xmlns:sodipodi="http://sodipodi.sourceforge.net/DTD/sodipodi-0.dtd"
   xmlns:inkscape="http://www.inkscape.org/namespaces/inkscape"
   width="100"
   height="100"
   id="svg2"
   version="1.1"
   inkscape:version="0.48.1 r9760"
   sodipodi:docname="burn.svg"
   inkscape:export-filename="burn-0006.png"
   inkscape:export-xdpi="90"
   inkscape:export-ydpi="90"
   style="display:inline">
  <defs
     id="defs4">
    <filter
       id="filter3000"
       inkscape:label="Dots transparency"
       x="0"
       y="0"
       width="1"
       height="1"
       inkscape:menu="Image effects, transparent"
       inkscape:menu-tooltip="Gives a pointillist HSL sensitive transparency"
       color-interpolation-filters="sRGB">
      <feTurbulence
         id="feTurbulence3002"
         result="result1"
         numOctaves="3"
         baseFrequency="1"
         type="fractalNoise"
         seed="50" />
      <feColorMatrix
         id="feColorMatrix3004"
         result="result0"
         in="SourceGraphic"
         type="luminanceToAlpha" />
      <feColorMatrix
         id="feColorMatrix3006"
         values="1 0 0 0 0 0 1 0 0 0 0 0 1 0 0 0 0 0 0.7 0 "
         result="result2" />
      <feComposite
         id="feComposite3008"
         in2="result2"
         in="result1"
         operator="over"
         result="result3" />
      <feColorMatrix
         id="feColorMatrix3010"
         values="1 0 0 0 0 0 1 0 0 0 0 0 1 0 0 0 0 0 5 -3.2 "
         result="result91" />
      <feComposite
         id="feComposite3012"
         in2="result91"
         operator="out"
         in="SourceGraphic"
         result="result4" />
    </filter>
    <filter
       id="filter3014"
       inkscape:label="Dots transparency"
       x="0"
       y="0"
       width="1"
       height="1"
       inkscape:menu="Image effects, transparent"
       inkscape:menu-tooltip="Gives a pointillist HSL sensitive transparency"
       color-interpolation-filters="sRGB">
      <feTurbulence
         id="feTurbulence3016"
         result="result1"
         numOctaves="3"
         baseFrequency="1"
         type="fractalNoise"
         seed="50" />
      <feColorMatrix
         id="feColorMatrix3018"
         result="result0"
         in="SourceGraphic"
         type="luminanceToAlpha" />
      <feColorMatrix
         id="feColorMatrix3020"
         values="1 0 0 0 0 0 1 0 0 0 0 0 1 0 0 0 0 0 0.7 0 "
         result="result2" />
      <feComposite
         id="feComposite3022"
         in2="result2"
         in="result1"
         operator="over"
         result="result3" />
      <feColorMatrix
         id="feColorMatrix3024"
         values="1 0 0 0 0 0 1 0 0 0 0 0 1 0 0 0 0 0 5 -3.2 "
         result="result91" />
      <feComposite
         id="feComposite3026"
         in2="result91"
         operator="out"
         in="SourceGraphic"
         result="result4" />
    </filter>
    <filter
       id="filter3056"
       inkscape:label="Chalk and sponge"
       inkscape:menu="Distort"
       inkscape:menu-tooltip="Low turbulence gives sponge look and high turbulence chalk"
       width="1.6"
       height="2"
       y="-0.5"
       x="-0.30000001"
       color-interpolation-filters="sRGB">
      <feTurbulence
         id="feTurbulence3058"
         baseFrequency="0.4"
         type="fractalNoise"
         seed="0"
         numOctaves="5"
         result="result1" />
      <feOffset
         id="feOffset3060"
         dx="-5"
         dy="-5"
         result="result2" />
      <feDisplacementMap
         id="feDisplacementMap3062"
         in2="result1"
         xChannelSelector="R"
         yChannelSelector="G"
         scale="30"
         in="SourceGraphic" />
    </filter>
    <filter
       id="filter3056-2"
       inkscape:label="Chalk and sponge"
       inkscape:menu="Distort"
       inkscape:menu-tooltip="Low turbulence gives sponge look and high turbulence chalk"
       width="1.6"
       height="2"
       y="-0.5"
       x="-0.30000001"
       color-interpolation-filters="sRGB">
      <feTurbulence
         id="feTurbulence3058-8"
         baseFrequency="0.4"
         type="fractalNoise"
         seed="0"
         numOctaves="5"
         result="result1" />
      <feOffset
         id="feOffset3060-0"
         dx="-5"
         dy="-5"
         result="result2" />
      <feDisplacementMap
         id="feDisplacementMap3062-1"
         in2="result1"
         xChannelSelector="R"
         yChannelSelector="G"
         scale="30"
         in="SourceGraphic" />
    </filter>
    <filter
       id="filter3223"
       inkscape:label="Chalk and sponge"
       inkscape:menu="Distort"
       inkscape:menu-tooltip="Low turbulence gives sponge look and high turbulence chalk"
       width="1.6"
       height="2"
       y="-0.5"
       x="-0.30000001"
       color-interpolation-filters="sRGB">
      <feTurbulence
         id="feTurbulence3225"
         baseFrequency="0.4"
         type="fractalNoise"
         seed="0"
         numOctaves="5"
         result="result1" />
      <feOffset
         id="feOffset3227"
         dx="-5"
         dy="-5"
         result="result2" />
      <feDisplacementMap
         id="feDisplacementMap3229"
         in2="result1"
         xChannelSelector="R"
         yChannelSelector="G"
         scale="30"
         in="SourceGraphic" />
    </filter>
    <filter
       id="filter3056-2-7"
       inkscape:label="Chalk and sponge"
       inkscape:menu="Distort"
       inkscape:menu-tooltip="Low turbulence gives sponge look and high turbulence chalk"
       width="1.6"
       height="2"
       y="-0.5"
       x="-0.30000001"
       color-interpolation-filters="sRGB">
      <feTurbulence
         id="feTurbulence3058-8-4"
         baseFrequency="0.4"
         type="fractalNoise"
         seed="0"
         numOctaves="5"
         result="result1" />
      <feOffset
         id="feOffset3060-0-5"
         dx="-5"
         dy="-5"
         result="result2" />
      <feDisplacementMap
         id="feDisplacementMap3062-1-5"
         in2="result1"
         xChannelSelector="R"
         yChannelSelector="G"
         scale="30"
         in="SourceGraphic" />
    </filter>
    <filter
       id="filter3223-6"
       inkscape:label="Chalk and sponge"
       inkscape:menu="Distort"
       inkscape:menu-tooltip="Low turbulence gives sponge look and high turbulence chalk"
       width="1.6"
       height="2"
       y="-0.5"
       x="-0.30000001"
       color-interpolation-filters="sRGB">
      <feTurbulence
         id="feTurbulence3225-5"
         baseFrequency="0.4"
         type="fractalNoise"
         seed="0"
         numOctaves="5"
         result="result1" />
      <feOffset
         id="feOffset3227-8"
         dx="-5"
         dy="-5"
         result="result2" />
      <feDisplacementMap
         id="feDisplacementMap3229-6"
         in2="result1"
         xChannelSelector="R"
         yChannelSelector="G"
         scale="30"
         in="SourceGraphic" />
    </filter>
    <filter
       id="filter3056-2-7-0"
       inkscape:label="Chalk and sponge"
       inkscape:menu="Distort"
       inkscape:menu-tooltip="Low turbulence gives sponge look and high turbulence chalk"
       width="1.6"
       height="2"
       y="-0.5"
       x="-0.30000001"
       color-interpolation-filters="sRGB">
      <feTurbulence
         id="feTurbulence3058-8-4-3"
         baseFrequency="0.4"
         type="fractalNoise"
         seed="0"
         numOctaves="5"
         result="result1" />
      <feOffset
         id="feOffset3060-0-5-1"
         dx="-5"
         dy="-5"
         result="result2" />
      <feDisplacementMap
         id="feDisplacementMap3062-1-5-1"
         in2="result1"
         xChannelSelector="R"
         yChannelSelector="G"
         scale="30"
         in="SourceGraphic" />
    </filter>
    <filter
       id="filter3223-6-2"
       inkscape:label="Chalk and sponge"
       inkscape:menu="Distort"
       inkscape:menu-tooltip="Low turbulence gives sponge look and high turbulence chalk"
       width="1.6"
       height="2"
       y="-0.5"
       x="-0.30000001"
       color-interpolation-filters="sRGB">
      <feTurbulence
         id="feTurbulence3225-5-8"
         baseFrequency="0.4"
         type="fractalNoise"
         seed="0"
         numOctaves="5"
         result="result1" />
      <feOffset
         id="feOffset3227-8-6"
         dx="-5"
         dy="-5"
         result="result2" />
      <feDisplacementMap
         id="feDisplacementMap3229-6-8"
         in2="result1"
         xChannelSelector="R"
         yChannelSelector="G"
         scale="30"
         in="SourceGraphic" />
    </filter>
    <filter
       id="filter3056-2-7-0-3"
       inkscape:label="Chalk and sponge"
       inkscape:menu="Distort"
       inkscape:menu-tooltip="Low turbulence gives sponge look and high turbulence chalk"
       width="1.6"
       height="2"
       y="-0.5"
       x="-0.30000001"
       color-interpolation-filters="sRGB">
      <feTurbulence
         id="feTurbulence3058-8-4-3-9"
         baseFrequency="0.4"
         type="fractalNoise"
         seed="0"
         numOctaves="5"
         result="result1" />
      <feOffset
         id="feOffset3060-0-5-1-0"
         dx="-5"
         dy="-5"
         result="result2" />
      <feDisplacementMap
         id="feDisplacementMap3062-1-5-1-7"
         in2="result1"
         xChannelSelector="R"
         yChannelSelector="G"
         scale="30"
         in="SourceGraphic" />
    </filter>
    <filter
       id="filter3223-6-2-0"
       inkscape:label="Chalk and sponge"
       inkscape:menu="Distort"
       inkscape:menu-tooltip="Low turbulence gives sponge look and high turbulence chalk"
       width="1.6"
       height="2"
       y="-0.5"
       x="-0.30000001"
       color-interpolation-filters="sRGB">
      <feTurbulence
         id="feTurbulence3225-5-8-1"
         baseFrequency="0.4"
         type="fractalNoise"
         seed="0"
         numOctaves="5"
         result="result1" />
      <feOffset
         id="feOffset3227-8-6-8"
         dx="-5"
         dy="-5"
         result="result2" />
      <feDisplacementMap
         id="feDisplacementMap3229-6-8-5"
         in2="result1"
         xChannelSelector="R"
         yChannelSelector="G"
         scale="30"
         in="SourceGraphic" />
    </filter>
  </defs>
  <sodipodi:namedview
     id="base"
     pagecolor="#ffffff"
     bordercolor="#666666"
     borderopacity="1.0"
     inkscape:pageopacity="0.0"
     inkscape:pageshadow="2"
     inkscape:zoom="0.99999996"
     inkscape:cx="-86.385986"
     inkscape:cy="48.56909"
     inkscape:document-units="px"
     inkscape:current-layer="layer1"
     showgrid="false"
     inkscape:showpageshadow="false"
     inkscape:window-width="1440"
     inkscape:window-height="833"
     inkscape:window-x="0"
     inkscape:window-y="0"
     inkscape:window-maximized="1"
     inkscape:snap-bbox="true"
     inkscape:bbox-nodes="true"
     inkscape:snap-global="false"
     showguides="true"
     inkscape:guide-bbox="true" />
  <metadata
     id="metadata7">
    <rdf:RDF>
      <cc:Work
         rdf:about="">
        <dc:format>image/svg+xml</dc:format>
        <dc:type
           rdf:resource="http://purl.org/dc/dcmitype/StillImage" />
        <dc:title />
      </cc:Work>
    </rdf:RDF>
  </metadata>
  <g
     inkscape:label="bg (ignore)"
     inkscape:groupmode="layer"
     id="layer1"
     transform="translate(0,-952.3622)"
     style="display:inline"
     sodipodi:insensitive="true">
    <rect
       style="fill:#4d4d4d;fill-opacity:1;stroke:none"
       id="rect6615"
       width="100"
       height="100"
       x="0"
       y="952.36218" />
    <rect
       y="955.36218"
       x="3"
       height="94"
       width="94"
       id="rect3830"
       style="fill:#b3b3b3;fill-opacity:1;stroke:none" />
  </g>
  <g
     inkscape:groupmode="layer"
     id="layer2"
     inkscape:label="0001"
     style="display:inline"
     sodipodi:insensitive="true">
    <g
       id="g3832"
       transform="matrix(2.8629767,0,0,2.8629767,-2.0983519,-188.01766)">
      <path
         sodipodi:nodetypes="ccccccccccc"
         inkscape:connector-curvature="0"
         id="path3127"
         d="M 21.90625,66.71875 C 16.349885,67.174004 13.968866,73.032366 11.8125,77.3125 10.136105,66.981544 7.8233606,78.358927 7.1625876,82.920953 11.767973,85.149096 8.8352638,89.362744 5.25,91.09375 c 2.1544466,2.447346 6.535808,11.11284 6.366116,4.597587 -0.07528,-3.20516 0.999331,-1.54674 5.189183,-0.279725 3.271285,2.475929 -0.243372,4.862588 3.540323,2.522062 C 26.119606,94.128147 20.015149,89.355741 25.125,89.1875 27.723584,84.999101 36.314536,75.73718 26.700774,81.814716 26.9004,81.20688 30.149293,78.928447 30.25,76.875 31.863594,71.655867 27.290326,66.195407 21.90625,66.71875 z"
         style="fill:#ffffff;fill-opacity:1;stroke:none" />
      <path
         inkscape:connector-curvature="0"
         id="path3952"
         transform="translate(0,65)"
         d="m 22.5,3.6875 c -2.338334,0.015743 -4.445117,1.4046795 -5.40625,3.5 C 15.004092,9.3895337 13.009296,14.425778 12.25,16.75 l -1.6875,-0.625 -0.53125,-2.875 -0.71875,4.03125 2.4375,1.875 -0.09375,0.90625 c 0,0 -0.148029,1.582347 -0.15625,2.40625 -0.04047,0.156104 -0.06728,0.306442 -0.09375,0.46875 -0.03154,0.193433 -0.04264,0.424164 -0.03125,0.65625 l -3.5625,2.96875 2.6875,4.75 0,-3.625 3.0625,0.0625 0.03125,0.03125 c 0,0 1.755342,0.648958 2.375,0.75 0.400788,0.06535 1,0.15625 1,0.15625 l 0.21875,-0.03125 1.75,0.21875 0,3.625 2.6875,-4.75 -1.78125,-1.5 1.0625,-3.78125 c 0.02151,0.02173 0.03997,0.04036 0.0625,0.0625 l 3.0625,-0.25 2.09375,-2.96875 -2.90625,1.375 -1.3125,-0.40625 0.25,-0.5 c 0,0 1.793289,-3.168538 3.34375,-4.90625 1.516452,-0.867616 2.66567,-2.360061 2.96875,-4.21875 C 29.002198,7.38479 26.771459,4.314698 23.5,3.78125 23.159223,3.7256825 22.834048,3.685251 22.5,3.6875 z"
         style="fill:#2c89a0;fill-opacity:1;stroke:none" />
      <path
         transform="matrix(0.72253339,0.1178171,-0.1178171,0.72253339,-30.248874,32.328936)"
         d="m 72.5,48.375 c 0,0.759392 -0.615608,1.375 -1.375,1.375 -0.759392,0 -1.375,-0.615608 -1.375,-1.375 0,-0.759392 0.615608,-1.375 1.375,-1.375 0.759392,0 1.375,0.615608 1.375,1.375 z"
         sodipodi:ry="1.375"
         sodipodi:rx="1.375"
         sodipodi:cy="48.375"
         sodipodi:cx="71.125"
         id="path8759"
         style="fill:#ffffff;fill-opacity:1;stroke:none"
         sodipodi:type="arc" />
      <path
         sodipodi:type="arc"
         style="fill:#ffffff;fill-opacity:1;stroke:none"
         id="path8761"
         sodipodi:cx="71.125"
         sodipodi:cy="48.375"
         sodipodi:rx="1.375"
         sodipodi:ry="1.375"
         d="m 72.5,48.375 c 0,0.759392 -0.615608,1.375 -1.375,1.375 -0.759392,0 -1.375,-0.615608 -1.375,-1.375 0,-0.759392 0.615608,-1.375 1.375,-1.375 0.759392,0 1.375,0.615608 1.375,1.375 z"
         transform="matrix(0.92272057,0.15045985,-0.15045985,0.92272057,-39.457844,21.657959)" />
      <path
         transform="matrix(0.75219066,0.12265304,-0.12265304,0.75219066,-34.721699,29.016754)"
         d="m 77.25,62.875 c 0,0.897463 -0.727537,1.625 -1.625,1.625 C 74.727537,64.5 74,63.772463 74,62.875 c 0,-0.897463 0.727537,-1.625 1.625,-1.625 0.897463,0 1.625,0.727537 1.625,1.625 z"
         sodipodi:ry="1.625"
         sodipodi:rx="1.625"
         sodipodi:cy="62.875"
         sodipodi:cx="75.625"
         id="path4212"
         style="fill:#ffffff;fill-opacity:1;stroke:none"
         sodipodi:type="arc" />
      <path
         sodipodi:type="arc"
         style="fill:#ffffff;fill-opacity:1;stroke:none"
         id="path3131"
         sodipodi:cx="71.125"
         sodipodi:cy="48.375"
         sodipodi:rx="1.375"
         sodipodi:ry="1.375"
         d="m 72.5,48.375 c 0,0.759392 -0.615608,1.375 -1.375,1.375 -0.759392,0 -1.375,-0.615608 -1.375,-1.375 0,-0.759392 0.615608,-1.375 1.375,-1.375 0.759392,0 1.375,0.615608 1.375,1.375 z"
         transform="matrix(0.84532507,0.55182217,-0.43791749,0.49367689,-23.181948,15.845822)" />
      <path
         inkscape:connector-curvature="0"
         id="path3153"
         transform="translate(0,65)"
         d="m 22.5,3.6875 c -0.104602,7.042e-4 -0.208907,0.02511 -0.3125,0.03125 1.50086,1.3876128 2.126325,3.6219627 2.46875,5.59375 0.262459,1.581901 -0.618228,3.03822 -1.75,4.0625 -2.078685,2.253369 -3.106962,5.2352 -4.21875,8.03125 -0.694576,1.90041 -0.954116,4.086251 -2.46875,5.5625 -0.706054,0.363519 -1.586376,0.57364 -2.375,0.90625 0.354257,0.129092 1.585806,0.568329 2.125,0.65625 0.400788,0.06535 1,0.15625 1,0.15625 l 0.21875,-0.03125 1.75,0.21875 0,3.625 2.6875,-4.75 -1.78125,-1.5 1.0625,-3.78125 c 0.02151,0.02173 0.03997,0.04036 0.0625,0.0625 l 3.0625,-0.25 2.09375,-2.96875 -2.90625,1.375 -1.3125,-0.40625 0.25,-0.5 c 0,0 1.793289,-3.168538 3.34375,-4.90625 1.516452,-0.867616 2.66567,-2.360061 2.96875,-4.21875 C 29.002198,7.38479 26.771459,4.314698 23.5,3.78125 23.159223,3.7256825 22.834048,3.685251 22.5,3.6875 z"
         style="fill:#0b2228;fill-opacity:1;stroke:none" />
    </g>
  </g>
  <g
     inkscape:groupmode="layer"
     id="layer3"
     inkscape:label="0002"
     style="display:none"
     transform="translate(0,65)"
     sodipodi:insensitive="true">
    <g
       id="g3860"
       transform="matrix(2.9243517,0,0,2.9243517,-3.2152092,-67.015863)">
      <path
         sodipodi:nodetypes="ccccccccccc"
         inkscape:connector-curvature="0"
         id="path3127-2"
         d="M 21.90625,1.7187499 C 16.349885,2.1740039 13.968866,8.0323659 11.8125,12.3125 10.136105,1.9815439 7.823361,13.358927 7.162588,17.920953 11.767973,20.149096 8.835264,24.362744 5.25,26.09375 c 2.154447,2.447346 6.535808,11.11284 6.366116,4.597587 -0.07528,-3.20516 0.999331,-1.54674 5.189183,-0.279725 3.271285,2.475929 -0.243372,4.862588 3.540323,2.522062 C 26.119606,29.128147 20.015149,24.355741 25.125,24.1875 27.723584,19.999101 36.314536,10.73718 26.700774,16.814716 26.9004,16.20688 30.149293,13.928447 30.25,11.875 31.863594,6.6558669 27.290326,1.1954069 21.90625,1.7187499 z"
         style="fill:#d5f6ff;fill-opacity:1;stroke:none;display:inline;filter:url(#filter3056)" />
      <path
         id="path3952-3"
         d="m 22.5,3.6875 c -2.338334,0.01574 -4.445117,1.404679 -5.40625,3.5 C 15.004092,9.389534 13.009296,14.425778 12.25,16.75 l -1.6875,-0.625 -0.53125,-2.875 -0.71875,4.03125 2.4375,1.875 -0.09375,0.90625 c 0,0 -0.148029,1.582347 -0.15625,2.40625 -0.04047,0.156104 -0.06728,0.306442 -0.09375,0.46875 -0.03154,0.193433 -0.04264,0.424164 -0.03125,0.65625 l -3.5625,2.96875 2.6875,4.75 0,-3.625 3.0625,0.0625 0.03125,0.03125 c 0,0 1.755342,0.648958 2.375,0.75 0.400788,0.06535 1,0.15625 1,0.15625 l 0.21875,-0.03125 1.75,0.21875 0,3.625 2.6875,-4.75 -1.78125,-1.5 1.0625,-3.78125 c 0.02151,0.02173 0.03997,0.04036 0.0625,0.0625 l 3.0625,-0.25 2.09375,-2.96875 -2.90625,1.375 -1.3125,-0.40625 0.25,-0.5 c 0,0 1.793289,-3.168538 3.34375,-4.90625 1.516452,-0.867616 2.66567,-2.360061 2.96875,-4.21875 C 29.002198,7.38479 26.771459,4.314698 23.5,3.78125 23.159223,3.72568 22.834048,3.68525 22.5,3.6875 z"
         style="fill:#2c89a0;fill-opacity:1;stroke:none;display:inline;filter:url(#filter3000)"
         inkscape:connector-curvature="0" />
      <path
         transform="matrix(0.72253339,0.1178171,-0.1178171,0.72253339,-30.248874,-32.671064)"
         d="m 72.5,48.375 c 0,0.759392 -0.615608,1.375 -1.375,1.375 -0.759392,0 -1.375,-0.615608 -1.375,-1.375 0,-0.759392 0.615608,-1.375 1.375,-1.375 0.759392,0 1.375,0.615608 1.375,1.375 z"
         sodipodi:ry="1.375"
         sodipodi:rx="1.375"
         sodipodi:cy="48.375"
         sodipodi:cx="71.125"
         id="path8759-2"
         style="fill:#ffffff;fill-opacity:1;stroke:none;display:inline"
         sodipodi:type="arc" />
      <path
         sodipodi:type="arc"
         style="fill:#ffffff;fill-opacity:1;stroke:none;display:inline"
         id="path8761-6"
         sodipodi:cx="71.125"
         sodipodi:cy="48.375"
         sodipodi:rx="1.375"
         sodipodi:ry="1.375"
         d="m 72.5,48.375 c 0,0.759392 -0.615608,1.375 -1.375,1.375 -0.759392,0 -1.375,-0.615608 -1.375,-1.375 0,-0.759392 0.615608,-1.375 1.375,-1.375 0.759392,0 1.375,0.615608 1.375,1.375 z"
         transform="matrix(0.92272057,0.15045985,-0.15045985,0.92272057,-39.457844,-43.342041)" />
      <path
         transform="matrix(0.75219066,0.12265304,-0.12265304,0.75219066,-34.721699,-35.983246)"
         d="m 77.25,62.875 c 0,0.897463 -0.727537,1.625 -1.625,1.625 C 74.727537,64.5 74,63.772463 74,62.875 c 0,-0.897463 0.727537,-1.625 1.625,-1.625 0.897463,0 1.625,0.727537 1.625,1.625 z"
         sodipodi:ry="1.625"
         sodipodi:rx="1.625"
         sodipodi:cy="62.875"
         sodipodi:cx="75.625"
         id="path4212-8"
         style="fill:#ffffff;fill-opacity:1;stroke:none;display:inline"
         sodipodi:type="arc" />
      <path
         sodipodi:type="arc"
         style="fill:#ffffff;fill-opacity:1;stroke:none;display:inline"
         id="path3131-9"
         sodipodi:cx="71.125"
         sodipodi:cy="48.375"
         sodipodi:rx="1.375"
         sodipodi:ry="1.375"
         d="m 72.5,48.375 c 0,0.759392 -0.615608,1.375 -1.375,1.375 -0.759392,0 -1.375,-0.615608 -1.375,-1.375 0,-0.759392 0.615608,-1.375 1.375,-1.375 0.759392,0 1.375,0.615608 1.375,1.375 z"
         transform="matrix(0.84532507,0.55182217,-0.43791749,0.49367689,-23.181948,-49.154178)" />
      <path
         id="path3153-1"
         d="m 22.5,3.6874999 c -0.104602,7.042e-4 -0.208907,0.02511 -0.3125,0.03125 1.50086,1.3876128 2.126325,3.6219627 2.46875,5.59375 0.262459,1.5819011 -0.618228,3.0382201 -1.75,4.0625001 -2.078685,2.253369 -3.106962,5.2352 -4.21875,8.03125 -0.694576,1.90041 -0.954116,4.086251 -2.46875,5.5625 -0.706054,0.363519 -1.586376,0.57364 -2.375,0.90625 0.354257,0.129092 1.585806,0.568329 2.125,0.65625 0.400788,0.06535 1,0.15625 1,0.15625 l 0.21875,-0.03125 1.75,0.21875 0,3.625 2.6875,-4.75 -1.78125,-1.5 1.0625,-3.78125 c 0.02151,0.02173 0.03997,0.04036 0.0625,0.0625 l 3.0625,-0.25 2.09375,-2.96875 -2.90625,1.375 -1.3125,-0.40625 0.25,-0.5 c 0,0 1.793289,-3.168538 3.34375,-4.90625 1.516452,-0.867616 2.66567,-2.360061 2.96875,-4.21875 C 29.002198,7.3847899 26.771459,4.3146979 23.5,3.7812499 c -0.340777,-0.055567 -0.665952,-0.095999 -1,-0.09375 z"
         style="fill:#0b2228;fill-opacity:1;stroke:none;display:inline;filter:url(#filter3014)"
         inkscape:connector-curvature="0" />
    </g>
  </g>
  <g
     inkscape:groupmode="layer"
     id="layer4"
     inkscape:label="0003"
     style="display:none"
     transform="translate(0,65)"
     sodipodi:insensitive="true">
    <g
       id="g3888"
       transform="matrix(3.0477161,0,0,3.0477161,-9.8235858,-70.144478)">
      <path
         transform="matrix(0.65866022,0,0,0.65866022,6.2114514,6.0714597)"
         inkscape:export-ydpi="90"
         inkscape:export-xdpi="90"
         inkscape:export-filename="light.png"
         sodipodi:nodetypes="ccccccccccc"
         inkscape:connector-curvature="0"
         id="path3127-2-8"
         d="M 21.906251,1.7187501 C 16.349886,2.1740041 13.968867,8.0323661 11.812501,12.3125 10.136106,1.9815441 7.8233615,13.358927 7.1625881,17.920953 c 4.6053859,2.228143 1.6726764,6.441791 -1.912588,8.172797 2.154447,2.447346 6.5358089,11.11284 6.3661169,4.597587 -0.07528,-3.20516 0.999331,-1.54674 5.189183,-0.279725 3.271285,2.475929 -0.243372,4.862588 3.540323,2.522062 C 26.119607,29.128147 20.01515,24.355741 25.125001,24.1875 27.723585,19.999101 36.314537,10.73718 26.700775,16.814716 26.900401,16.20688 30.149294,13.928447 30.250001,11.875 31.863595,6.6558671 27.290327,1.1954071 21.906251,1.7187501 z"
         style="fill:#d5f6ff;fill-opacity:1;stroke:none;display:inline;filter:url(#filter3056-2)" />
      <path
         inkscape:connector-curvature="0"
         id="path3153-3"
         d="m 22.5,3.6875004 c -0.104602,7.042e-4 -0.208907,0.02511 -0.3125,0.03125 1.50086,1.3876128 2.126325,3.6219627 2.46875,5.59375 0.262459,1.5819006 -0.618228,3.0382196 -1.75,4.0624996 -2.078685,2.253369 -3.106962,5.2352 -4.21875,8.03125 -0.694576,1.90041 -0.954116,4.086251 -2.46875,5.5625 -0.706054,0.363519 -1.586376,0.57364 -2.375,0.90625 0.354257,0.129092 1.585806,0.568329 2.125,0.65625 0.400788,0.06535 1,0.15625 1,0.15625 l 0.21875,-0.03125 1.75,0.21875 0,3.625 2.6875,-4.75 -1.78125,-1.5 1.0625,-3.78125 c 0.02151,0.02173 0.03997,0.04036 0.0625,0.0625 l 3.0625,-0.25 2.09375,-2.96875 -2.90625,1.375 -1.3125,-0.40625 0.25,-0.5 c 0,0 1.793289,-3.168538 3.34375,-4.90625 1.516452,-0.867616 2.66567,-2.360061 2.96875,-4.21875 C 29.002198,7.3847904 26.771459,4.3146984 23.5,3.7812504 c -0.340777,-0.055567 -0.665952,-0.095999 -1,-0.09375 z"
         style="fill:#0b2228;fill-opacity:1;stroke:none;display:inline;filter:url(#filter3223)" />
    </g>
  </g>
  <g
     inkscape:groupmode="layer"
     id="layer5"
     inkscape:label="0004"
     style="display:none"
     transform="translate(0,65)"
     sodipodi:insensitive="true">
    <g
       id="g3892"
       transform="matrix(3.0724085,0,0,3.0724085,-9.8851473,-70.591254)">
      <path
         transform="matrix(0.40849647,0,0,0.40849647,11.292411,10.637593)"
         inkscape:export-ydpi="90"
         inkscape:export-xdpi="90"
         inkscape:export-filename="light.png"
         sodipodi:nodetypes="ccccccccccc"
         inkscape:connector-curvature="0"
         id="path3127-2-8-4"
         d="M 21.906251,1.7187501 C 16.349886,2.1740041 13.968867,8.0323661 11.812501,12.3125 10.136106,1.9815441 7.8233615,13.358927 7.1625881,17.920953 c 4.6053859,2.228143 1.6726764,6.441791 -1.912588,8.172797 2.154447,2.447346 6.5358089,11.11284 6.3661169,4.597587 -0.07528,-3.20516 0.999331,-1.54674 5.189183,-0.279725 3.271285,2.475929 -0.243372,4.862588 3.540323,2.522062 C 26.119607,29.128147 20.01515,24.355741 25.125001,24.1875 27.723585,19.999101 36.314537,10.73718 26.700775,16.814716 26.900401,16.20688 30.149294,13.928447 30.250001,11.875 31.863595,6.6558671 27.290327,1.1954071 21.906251,1.7187501 z"
         style="fill:#d5f6ff;fill-opacity:1;stroke:none;display:inline;filter:url(#filter3056-2-7)" />
      <path
         transform="matrix(0.62019301,0,0,0.62019301,7.4401125,6.8721157)"
         inkscape:connector-curvature="0"
         id="path3153-3-0"
         d="m 22.5,3.6875007 c -0.104602,7.04e-4 -0.208907,0.02511 -0.3125,0.03125 1.50086,1.387613 2.126325,3.621963 2.46875,5.59375 0.262459,1.5819003 -0.618228,3.0382193 -1.75,4.0624993 -2.078685,2.253369 -3.106962,5.2352 -4.21875,8.03125 -0.694576,1.90041 -0.954116,4.086251 -2.46875,5.5625 -0.706054,0.363519 -1.586376,0.57364 -2.375,0.90625 0.354257,0.129092 1.585806,0.568329 2.125,0.65625 0.400788,0.06535 1,0.15625 1,0.15625 l 0.21875,-0.03125 1.75,0.21875 0,3.625 2.6875,-4.75 -1.78125,-1.5 1.0625,-3.78125 c 0.02151,0.02173 0.03997,0.04036 0.0625,0.0625 l 3.0625,-0.25 2.09375,-2.96875 -2.90625,1.375 -1.3125,-0.40625 0.25,-0.5 c 0,0 1.793289,-3.168538 3.34375,-4.90625 1.516452,-0.867616 2.66567,-2.360061 2.96875,-4.21875 C 29.002198,7.3847907 26.771459,4.3146987 23.5,3.7812507 c -0.340777,-0.05557 -0.665952,-0.096 -1,-0.09375 z"
         style="fill:#0b2228;fill-opacity:1;stroke:none;display:inline;filter:url(#filter3223-6)" />
    </g>
  </g>
  <g
     inkscape:groupmode="layer"
     id="layer6"
     inkscape:label="0005"
     style="display:none"
     transform="translate(0,65)"
     sodipodi:insensitive="true">
    <g
       id="g3896"
       transform="matrix(3.847988,0,0,3.847988,-24.810888,-84.624361)">
      <path
         transform="matrix(0.187454,0,0,0.187454,15.728915,14.672187)"
         inkscape:export-ydpi="90"
         inkscape:export-xdpi="90"
         inkscape:export-filename="light.png"
         sodipodi:nodetypes="ccccccccccc"
         inkscape:connector-curvature="0"
         id="path3127-2-8-4-6"
         d="M 21.906251,1.7187501 C 16.349886,2.1740041 13.968867,8.0323661 11.812501,12.3125 10.136106,1.9815441 7.8233615,13.358927 7.1625881,17.920953 c 4.6053859,2.228143 1.6726764,6.441791 -1.912588,8.172797 2.154447,2.447346 6.5358089,11.11284 6.3661169,4.597587 -0.07528,-3.20516 0.999331,-1.54674 5.189183,-0.279725 3.271285,2.475929 -0.243372,4.862588 3.540323,2.522062 C 26.119607,29.128147 20.01515,24.355741 25.125001,24.1875 27.723585,19.999101 36.314537,10.73718 26.700775,16.814716 26.900401,16.20688 30.149294,13.928447 30.250001,11.875 31.863595,6.6558671 27.290327,1.1954071 21.906251,1.7187501 z"
         style="fill:#d5f6ff;fill-opacity:1;stroke:none;display:inline;filter:url(#filter3056-2-7-0)" />
      <path
         transform="matrix(0.28459894,0,0,0.28459894,13.961143,12.944256)"
         inkscape:connector-curvature="0"
         id="path3153-3-0-6"
         d="m 22.5,3.6875007 c -0.104602,7.04e-4 -0.208907,0.02511 -0.3125,0.03125 1.50086,1.387613 2.126325,3.621963 2.46875,5.59375 0.262459,1.5819003 -0.618228,3.0382193 -1.75,4.0624993 -2.078685,2.253369 -3.106962,5.2352 -4.21875,8.03125 -0.694576,1.90041 -0.954116,4.086251 -2.46875,5.5625 -0.706054,0.363519 -1.586376,0.57364 -2.375,0.90625 0.354257,0.129092 1.585806,0.568329 2.125,0.65625 0.400788,0.06535 1,0.15625 1,0.15625 l 0.21875,-0.03125 1.75,0.21875 0,3.625 2.6875,-4.75 -1.78125,-1.5 1.0625,-3.78125 c 0.02151,0.02173 0.03997,0.04036 0.0625,0.0625 l 3.0625,-0.25 2.09375,-2.96875 -2.90625,1.375 -1.3125,-0.40625 0.25,-0.5 c 0,0 1.793289,-3.168538 3.34375,-4.90625 1.516452,-0.867616 2.66567,-2.360061 2.96875,-4.21875 C 29.002198,7.3847907 26.771459,4.3146987 23.5,3.7812507 c -0.340777,-0.05557 -0.665952,-0.096 -1,-0.09375 z"
         style="fill:#0b2228;fill-opacity:1;stroke:none;display:inline;filter:url(#filter3223-6-2)" />
    </g>
  </g>
  <g
     inkscape:groupmode="layer"
     id="layer7"
     inkscape:label="0006"
     style="display:none"
     transform="translate(0,65)"
     sodipodi:insensitive="true">
    <g
       id="g3900"
       transform="matrix(2.7452783,0,0,2.7452783,-3.3446502,-64.672257)">
      <path
         transform="matrix(0.11195384,0,0,0.11195384,17.224243,16.050259)"
         inkscape:export-ydpi="90"
         inkscape:export-xdpi="90"
         inkscape:export-filename="light.png"
         sodipodi:nodetypes="ccccccccccc"
         inkscape:connector-curvature="0"
         id="path3127-2-8-4-6-6"
         d="M 21.906251,1.7187501 C 16.349886,2.1740041 13.968867,8.0323661 11.812501,12.3125 10.136106,1.9815441 7.8233615,13.358927 7.1625881,17.920953 c 4.6053859,2.228143 1.6726764,6.441791 -1.912588,8.172797 2.154447,2.447346 6.5358089,11.11284 6.3661169,4.597587 -0.07528,-3.20516 0.999331,-1.54674 5.189183,-0.279725 3.271285,2.475929 -0.243372,4.862588 3.540323,2.522062 C 26.119607,29.128147 20.01515,24.355741 25.125001,24.1875 27.723585,19.999101 36.314537,10.73718 26.700775,16.814716 26.900401,16.20688 30.149294,13.928447 30.250001,11.875 31.863595,6.6558671 27.290327,1.1954071 21.906251,1.7187501 z"
         style="fill:#dbe2e3;fill-opacity:1;stroke:none;display:inline;filter:url(#filter3056-2-7-0-3)" />
      <path
         transform="matrix(0.16997207,0,0,0.16997207,16.16847,15.018281)"
         inkscape:connector-curvature="0"
         id="path3153-3-0-6-6"
         d="m 22.5,3.6875007 c -0.104602,7.04e-4 -0.208907,0.02511 -0.3125,0.03125 1.50086,1.387613 2.126325,3.621963 2.46875,5.59375 0.262459,1.5819003 -0.618228,3.0382193 -1.75,4.0624993 -2.078685,2.253369 -3.106962,5.2352 -4.21875,8.03125 -0.694576,1.90041 -0.954116,4.086251 -2.46875,5.5625 -0.706054,0.363519 -1.586376,0.57364 -2.375,0.90625 0.354257,0.129092 1.585806,0.568329 2.125,0.65625 0.400788,0.06535 1,0.15625 1,0.15625 l 0.21875,-0.03125 1.75,0.21875 0,3.625 2.6875,-4.75 -1.78125,-1.5 1.0625,-3.78125 c 0.02151,0.02173 0.03997,0.04036 0.0625,0.0625 l 3.0625,-0.25 2.09375,-2.96875 -2.90625,1.375 -1.3125,-0.40625 0.25,-0.5 c 0,0 1.793289,-3.168538 3.34375,-4.90625 1.516452,-0.867616 2.66567,-2.360061 2.96875,-4.21875 C 29.002198,7.3847907 26.771459,4.3146987 23.5,3.7812507 c -0.340777,-0.05557 -0.665952,-0.096 -1,-0.09375 z"
         style="fill:#0b2228;fill-opacity:1;stroke:none;display:inline;filter:url(#filter3223-6-2-0)" />
    </g>
  </g>
</svg>
