<?xml version="1.0" encoding="UTF-8" standalone="no"?>
<!-- Created with Inkscape (http://www.inkscape.org/) -->

<svg
   xmlns:dc="http://purl.org/dc/elements/1.1/"
   xmlns:cc="http://creativecommons.org/ns#"
   xmlns:rdf="http://www.w3.org/1999/02/22-rdf-syntax-ns#"
   xmlns:svg="http://www.w3.org/2000/svg"
   xmlns="http://www.w3.org/2000/svg"
   xmlns:sodipodi="http://sodipodi.sourceforge.net/DTD/sodipodi-0.dtd"
   xmlns:inkscape="http://www.inkscape.org/namespaces/inkscape"
   width="29"
   height="29"
   id="svg2"
   version="1.1"
   inkscape:version="0.48.1 r9760"
   sodipodi:docname="reticle.svg"
   inkscape:export-filename="0002.png"
   inkscape:export-xdpi="90"
   inkscape:export-ydpi="90"
   style="display:inline">
  <defs
     id="defs4" />
  <sodipodi:namedview
     id="base"
     pagecolor="#ffffff"
     bordercolor="#666666"
     borderopacity="1.0"
     inkscape:pageopacity="0.0"
     inkscape:pageshadow="2"
     inkscape:zoom="16"
     inkscape:cx="17.800362"
     inkscape:cy="14.062606"
     inkscape:document-units="px"
     inkscape:current-layer="layer7"
     showgrid="false"
     inkscape:showpageshadow="false"
     inkscape:window-width="1440"
     inkscape:window-height="833"
     inkscape:window-x="0"
     inkscape:window-y="0"
     inkscape:window-maximized="1"
     showguides="true"
     inkscape:guide-bbox="true"
     inkscape:snap-bbox="true"
     inkscape:bbox-nodes="true"
     inkscape:snap-global="true"
     inkscape:bbox-paths="false" />
  <metadata
     id="metadata7">
    <rdf:RDF>
      <cc:Work
         rdf:about="">
        <dc:format>image/svg+xml</dc:format>
        <dc:type
           rdf:resource="http://purl.org/dc/dcmitype/StillImage" />
        <dc:title />
      </cc:Work>
    </rdf:RDF>
  </metadata>
  <g
     inkscape:label="bg (ignore)"
     inkscape:groupmode="layer"
     id="layer1"
     transform="translate(0,-1023.3622)"
     style="display:inline"
     sodipodi:insensitive="true">
    <rect
       style="fill:#4d4d4d;fill-opacity:1;stroke:none"
       id="rect4066"
       width="29"
       height="29"
       x="0"
       y="1023.3622" />
  </g>
  <g
     inkscape:groupmode="layer"
     id="layer2"
     inkscape:label="001"
     style="display:none"
     sodipodi:insensitive="true">
    <path
       style="fill:#ffffff;fill-opacity:1;stroke:none"
       d="M 13.5,1.53125 C 7.1110652,2.0132551 2.0132551,7.1110652 1.53125,13.5 l 1.53125,0 C 3.537853,7.940728 7.940728,3.537853 13.5,3.0625 l 0,-1.53125 z m 2,0 0,1.53125 C 21.059272,3.537853 25.462147,7.940728 25.9375,13.5 l 1.53125,0 C 26.986745,7.1110652 21.888935,2.0132551 15.5,1.53125 z M 1.53125,15.5 C 2.0132551,21.888935 7.1110652,26.986745 13.5,27.46875 l 0,-1.53125 C 7.940728,25.462147 3.537853,21.059272 3.0625,15.5 l -1.53125,0 z m 24.40625,0 C 25.462147,21.059272 21.059272,25.462147 15.5,25.9375 l 0,1.53125 C 21.888935,26.986745 26.986745,21.888935 27.46875,15.5 l -1.53125,0 z"
       id="path3000"
       inkscape:connector-curvature="0" />
    <path
       style="fill:#ffffff;fill-opacity:1;stroke:none"
       d="M 13.5,7.0625 C 10.153586,7.5059803 7.5059803,10.153586 7.0625,13.5 l 1.53125,0 C 9.012988,10.981428 10.981428,9.012988 13.5,8.59375 l 0,-1.53125 z m 2,0 0,1.53125 c 2.518572,0.419238 4.487012,2.387678 4.90625,4.90625 l 1.53125,0 C 21.49402,10.153586 18.846414,7.5059803 15.5,7.0625 z M 7.0625,15.5 c 0.4434803,3.346414 3.091086,5.99402 6.4375,6.4375 l 0,-1.53125 C 10.981428,19.987012 9.012988,18.018572 8.59375,15.5 l -1.53125,0 z m 13.34375,0 C 19.987012,18.018572 18.018572,19.987012 15.5,20.40625 l 0,1.53125 c 3.346414,-0.44348 5.99402,-3.091086 6.4375,-6.4375 l -1.53125,0 z"
       id="path3013"
       inkscape:connector-curvature="0" />
    <path
       sodipodi:type="arc"
       style="fill:#ffffff;fill-opacity:1;stroke:none"
       id="path3024"
       sodipodi:cx="14.937631"
       sodipodi:cy="14.769476"
       sodipodi:rx="1.5909903"
       sodipodi:ry="1.5909903"
       d="m 16.528621,14.769476 a 1.5909903,1.5909903 0 1 1 -3.181981,0 1.5909903,1.5909903 0 1 1 3.181981,0 z"
       transform="matrix(0.94280901,0,0,0.94280901,0.41666723,0.57520501)" />
  </g>
  <g
     inkscape:groupmode="layer"
     id="layer3"
     inkscape:label="002"
     style="display:none"
     sodipodi:insensitive="true">
    <path
       style="fill:#ffffff;fill-opacity:1;stroke:none;display:inline"
       d="M 7.1495997,3.768733 C 1.8576223,7.3806292 -0.00830567,14.344367 2.7687332,20.118349 L 4.0948345,19.352725 C 1.7268662,14.300578 3.3384304,8.286138 7.9152246,5.0948345 L 7.1495997,3.768733 z M 8.8816504,2.7687331 9.6472754,4.0948344 C 14.699422,1.7268661 20.713862,3.3384304 23.905166,7.9152246 l 1.326101,-0.765625 C 21.619371,1.8576222 14.655633,-0.00830582 8.8816504,2.7687331 z M 3.768733,21.850401 c 3.6118962,5.291977 10.575634,7.157905 16.349616,4.380866 L 19.352724,24.905166 C 14.300578,27.273134 8.2861381,25.661569 5.0948344,21.084776 L 3.768733,21.850401 z M 24.905166,9.6472755 c 2.367968,5.0521465 0.756403,11.0665865 -3.82039,14.2578905 l 0.765625,1.326101 c 5.291977,-3.611896 7.157905,-10.575634 4.380866,-16.3496166 l -1.326101,0.7656251 z"
       id="path3000-6"
       inkscape:connector-curvature="0" />
    <path
       style="fill:#ffffff;fill-opacity:1;stroke:none;display:inline"
       d="m 21.942893,15.459041 c 0.437746,-3.347169 -1.434394,-6.5898106 -4.552,-7.8842953 l -0.396317,1.4790736 c 2.324247,1.0568077 3.716144,3.4676437 3.469243,6.0089047 l 1.479074,0.396317 z m -0.517639,1.931851 -1.479073,-0.396317 c -1.056808,2.324248 -3.467644,3.716145 -6.008905,3.469243 l -0.396317,1.479074 c 3.347169,0.437747 6.589811,-1.434393 7.884295,-4.552 z M 15.459041,7.0571076 C 12.111872,6.619361 8.8692304,8.4915008 7.5747457,11.609108 l 1.4790737,0.396316 C 10.110627,9.6811771 12.521464,8.2892801 15.062725,8.5361814 L 15.459041,7.0571076 z M 12.005425,19.946181 C 9.6811768,18.889373 8.2892798,16.478537 8.5361816,13.937275 L 7.0571081,13.540959 c -0.4377474,3.347169 1.4343926,6.589811 4.5519999,7.884295 l 0.396317,-1.479073 z"
       id="path3013-8"
       inkscape:connector-curvature="0" />
    <path
       sodipodi:type="arc"
       style="fill:#ffffff;fill-opacity:1;stroke:none;display:inline"
       id="path3024-5"
       sodipodi:cx="14.937631"
       sodipodi:cy="14.769476"
       sodipodi:rx="1.5909903"
       sodipodi:ry="1.5909903"
       d="m 16.528621,14.769476 a 1.5909903,1.5909903 0 1 1 -3.181981,0 1.5909903,1.5909903 0 1 1 3.181981,0 z"
       transform="matrix(0.94280901,0,0,0.94280901,0.4166672,0.57520501)" />
  </g>
  <g
     inkscape:groupmode="layer"
     id="layer4"
     inkscape:label="003"
     style="display:none"
     sodipodi:insensitive="true">
    <path
       style="fill:#ffffff;fill-opacity:1;stroke:none;display:inline"
       d="M 2.7687332,8.8816507 C -0.0083056,14.655633 1.8576221,21.619371 7.1495993,25.231266 l 0.7656254,-1.3261 C 3.3384305,20.713862 1.7268662,14.699423 4.0948345,9.6472758 L 2.7687332,8.8816507 z M 3.7687331,7.1496 5.0948345,7.9152249 C 8.2861376,3.3384309 14.300578,1.7268665 19.352725,4.0948346 L 20.11835,2.7687334 C 14.344367,-0.00830547 7.3806293,1.8576225 3.7687331,7.1496 z m 5.1129175,19.081668 c 5.7739824,2.777038 12.7377204,0.91111 16.3496154,-4.380867 l -1.326101,-0.765625 c -3.191303,4.576794 -9.205743,6.188357 -14.2578894,3.82039 l -0.765625,1.326102 z M 21.084776,5.0948347 c 4.576793,3.1913029 6.188357,9.2057433 3.82039,14.2578903 l 1.326101,0.765624 C 29.008306,14.344367 27.142378,7.3806292 21.8504,3.7687334 l -0.765624,1.3261013 z"
       id="path3000-6-0"
       inkscape:connector-curvature="0" />
    <path
       style="fill:#ffffff;fill-opacity:1;stroke:none;display:inline"
       d="m 21.441065,17.352725 c 1.289141,-3.11982 0.32005,-6.736517 -2.356289,-8.7937886 l -0.765625,1.326101 c 1.971528,1.6223566 2.692027,4.3112956 1.795812,6.7020616 l 1.326102,0.765626 z m -1.000001,1.73205 -1.326101,-0.765625 c -1.622357,1.971529 -4.311296,2.692028 -6.702062,1.795812 l -0.765626,1.326101 c 3.11982,1.289143 6.736517,0.320052 8.793789,-2.356288 z M 17.352725,7.5589363 C 14.232905,6.2697944 10.616208,7.2388852 8.5589359,9.915225 l 1.3261014,0.765624 C 11.507394,8.7093214 14.196334,7.9888226 16.5871,8.8850377 L 17.352725,7.5589363 z M 10.68085,19.114963 C 8.7093209,17.492605 7.9888219,14.803667 8.8850377,12.4129 L 7.5589366,11.647275 c -1.2891426,3.11982 -0.3200518,6.736517 2.3562885,8.793789 L 10.68085,19.114963 z"
       id="path3013-8-0"
       inkscape:connector-curvature="0" />
    <path
       sodipodi:type="arc"
       style="fill:#ffffff;fill-opacity:1;stroke:none;display:inline"
       id="path3024-5-0"
       sodipodi:cx="14.937631"
       sodipodi:cy="14.769476"
       sodipodi:rx="1.5909903"
       sodipodi:ry="1.5909903"
       d="m 16.528621,14.769476 a 1.5909903,1.5909903 0 1 1 -3.181981,0 1.5909903,1.5909903 0 1 1 3.181981,0 z"
       transform="matrix(0.94280901,0,0,0.94280901,0.41666722,0.57520535)" />
  </g>
  <g
     inkscape:groupmode="layer"
     id="layer5"
     inkscape:label="004"
     style="display:none"
     sodipodi:insensitive="true">
    <path
       style="fill:#ffffff;fill-opacity:1;stroke:none;display:inline"
       d="m 1.5312501,15.5 c 0.482005,6.388935 5.5798148,11.486745 11.9687489,11.968749 L 13.5,25.9375 C 7.9407281,25.462147 3.537853,21.059272 3.0625001,15.5 l -1.53125,0 z m 0,-2 1.5312499,0 C 3.5378526,7.9407289 7.9407285,3.537853 13.5,3.0625001 l 0,-1.5312499 C 7.1110649,2.0132555 2.0132552,7.1110654 1.5312501,13.5 z M 15.500001,27.468751 c 6.388934,-0.482006 11.486744,-5.579816 11.968748,-11.96875 l -1.531249,0 C 25.462147,21.059272 21.059271,25.462147 15.5,25.9375 l 10e-7,1.531251 z M 15.5,3.0625 C 21.059271,3.5378529 25.462146,7.9407291 25.9375,13.5 l 1.53125,0 C 26.986745,7.111065 21.888935,2.0132551 15.5,1.5312506 l 0,1.5312494 z"
       id="path3000-6-0-6"
       inkscape:connector-curvature="0" />
    <path
       style="fill:#ffffff;fill-opacity:1;stroke:none;display:inline"
       d="m 20.466214,19.052 c 2.052684,-2.67986 2.052684,-6.42414 0,-9.1039995 l -1.082757,1.0827565 c 1.484453,2.077346 1.484453,4.86114 0,6.938485 L 20.466214,19.052 z M 19.052,20.466213 17.969243,19.383456 c -2.077346,1.484454 -4.86114,1.484454 -6.938485,0 L 9.948,20.466212 c 2.67986,2.052686 6.42414,2.052686 9.104,1e-6 z m 0,-11.9324262 c -2.67986,-2.0526843 -6.42414,-2.0526845 -9.1040002,0 l 1.0827572,1.0827563 c 2.077345,-1.4844526 4.861141,-1.4844521 6.938486,1e-6 L 19.052,8.5337868 z M 9.6165441,17.969243 c -1.4844538,-2.077347 -1.484454,-4.86114 0,-6.938486 L 8.5337872,9.9479998 C 6.4811022,12.62786 6.481102,16.37214 8.533787,19.052 l 1.0827571,-1.082757 z"
       id="path3013-8-0-5"
       inkscape:connector-curvature="0" />
    <path
       sodipodi:type="arc"
       style="fill:#ffffff;fill-opacity:1;stroke:none;display:inline"
       id="path3024-5-0-5"
       sodipodi:cx="14.937631"
       sodipodi:cy="14.769476"
       sodipodi:rx="1.5909903"
       sodipodi:ry="1.5909903"
       d="m 16.528621,14.769476 a 1.5909903,1.5909903 0 1 1 -3.181981,0 1.5909903,1.5909903 0 1 1 3.181981,0 z"
       transform="matrix(0.94280901,0,0,0.94280901,0.41666722,0.57520536)" />
  </g>
  <g
     inkscape:groupmode="layer"
     id="layer6"
     inkscape:label="005"
     style="display:none"
     sodipodi:insensitive="true">
    <path
       style="fill:#ffffff;fill-opacity:1;stroke:none;display:inline"
       d="M 3.7687329,21.8504 C 7.380629,27.142378 14.344367,29.008306 20.118348,26.231267 L 19.352724,24.905166 C 14.300577,27.273134 8.286138,25.66157 5.0948343,21.084775 L 3.7687329,21.8504 z m -1,-1.73205 1.3261013,-0.765625 C 1.726866,14.300578 3.3384304,8.2861379 7.9152243,5.0948344 L 7.1495994,3.7687331 C 1.8576219,7.3806295 -0.00830585,14.344367 2.7687329,20.11835 z m 19.0816691,5.112917 c 5.291976,-3.611896 7.157904,-10.575634 4.380864,-16.3496151 l -1.3261,0.7656245 c 2.367968,5.0521466 0.756403,11.0665856 -3.820391,14.2578896 l 0.765627,1.326101 z M 9.6472751,4.0948344 C 14.699421,1.7268666 20.713861,3.3384317 23.905165,7.9152247 l 1.326102,-0.765625 C 21.619371,1.857622 14.655633,-0.00830588 8.8816504,2.7687335 l 0.7656247,1.3261009 z"
       id="path3000-6-0-6-0"
       inkscape:connector-curvature="0" />
    <path
       style="fill:#ffffff;fill-opacity:1;stroke:none;display:inline"
       d="m 19.084776,20.441064 c 2.676339,-2.057272 3.64543,-5.673969 2.356288,-8.793788 L 20.114963,12.4129 c 0.896215,2.390767 0.175716,5.079706 -1.795812,6.702062 l 0.765625,1.326102 z M 17.352725,21.441063 16.5871,20.114962 c -2.390767,0.896216 -5.079706,0.175717 -6.7020619,-1.795812 l -1.3261018,0.765624 c 2.0572717,2.676341 5.6739687,3.645432 8.7937887,2.356289 z M 20.441064,9.9152246 C 18.383792,7.2388851 14.767095,6.2697939 11.647275,7.558936 L 12.4129,8.8850365 C 14.803666,7.9888218 17.492606,8.7093217 19.114963,10.68085 L 20.441064,9.9152246 z M 8.8850377,16.5871 C 7.9888224,14.196332 8.7093208,11.507394 10.68085,9.8850371 L 9.9152254,8.5589357 C 7.238885,10.616208 6.2697938,14.232905 7.5589365,17.352725 L 8.8850377,16.5871 z"
       id="path3013-8-0-5-4"
       inkscape:connector-curvature="0" />
    <path
       sodipodi:type="arc"
       style="fill:#ffffff;fill-opacity:1;stroke:none;display:inline"
       id="path3024-5-0-5-1"
       sodipodi:cx="14.937631"
       sodipodi:cy="14.769476"
       sodipodi:rx="1.5909903"
       sodipodi:ry="1.5909903"
       d="m 16.528621,14.769476 a 1.5909903,1.5909903 0 1 1 -3.181981,0 1.5909903,1.5909903 0 1 1 3.181981,0 z"
       transform="matrix(0.94280901,0,0,0.94280901,0.4166672,0.57520516)" />
  </g>
  <g
     inkscape:groupmode="layer"
     id="layer7"
     inkscape:label="006"
     sodipodi:insensitive="true"
     style="display:inline">
    <path
       style="fill:#ffffff;fill-opacity:1;stroke:none;display:inline"
       d="m 8.8816499,26.231266 c 5.7739831,2.77704 12.7377201,0.911112 16.3496151,-4.380865 l -1.326101,-0.765625 c -3.191303,4.576794 -9.205742,6.188358 -14.2578891,3.820389 l -0.765625,1.326101 z M 7.1495995,25.231267 7.9152244,23.905166 C 3.3384303,20.713862 1.7268661,14.699422 4.0948341,9.6472755 L 2.7687328,8.8816505 C -0.0083059,14.655633 1.8576218,21.619371 7.1495995,25.231267 z M 26.231267,20.118349 C 29.008305,14.344367 27.142377,7.3806293 21.850399,3.7687353 l -0.765624,1.3261003 c 4.576794,3.191303 6.188357,9.2057424 3.820389,14.2578894 l 1.326103,0.765624 z M 5.0948341,7.9152247 C 8.286136,3.3384319 14.300576,1.7268683 19.352723,4.0948353 L 20.118349,2.7687336 C 14.344366,-0.00830563 7.3806283,1.8576225 3.7687332,7.1496 l 1.3261009,0.7656247 z"
       id="path3000-6-0-6-0-6"
       inkscape:connector-curvature="0" />
    <path
       style="fill:#ffffff;fill-opacity:1;stroke:none;display:inline"
       d="m 17.390892,21.425254 c 3.117606,-1.294484 4.989746,-4.537126 4.551999,-7.884294 l -1.479073,0.396315 c 0.246901,2.541262 -1.144996,4.952098 -3.469242,6.008905 l 0.396316,1.479074 z M 15.45904,21.942891 15.062724,20.463818 C 12.521462,20.71072 10.110626,19.318823 9.0538203,16.994576 l -1.479074,0.396315 c 1.2944838,3.117608 4.5371247,4.989748 7.8842937,4.552 z M 21.425253,11.609108 C 20.130769,8.4915011 16.888127,6.6193608 13.540958,7.0571076 l 0.396317,1.4790731 c 2.54126,-0.2469012 4.952097,1.1449971 6.008905,3.4692443 l 1.479073,-0.396317 z M 8.5361816,15.062725 C 8.2892804,12.521463 9.6811768,10.110627 12.005425,9.0538198 L 11.609108,7.574746 C 8.4915008,8.8692303 6.6193605,12.111872 7.0571079,15.459041 l 1.4790737,-0.396316 z"
       id="path3013-8-0-5-4-0"
       inkscape:connector-curvature="0" />
    <path
       sodipodi:type="arc"
       style="fill:#ffffff;fill-opacity:1;stroke:none;display:inline"
       id="path3024-5-0-5-1-9"
       sodipodi:cx="14.937631"
       sodipodi:cy="14.769476"
       sodipodi:rx="1.5909903"
       sodipodi:ry="1.5909903"
       d="m 16.528621,14.769476 a 1.5909903,1.5909903 0 1 1 -3.181981,0 1.5909903,1.5909903 0 1 1 3.181981,0 z"
       transform="matrix(0.94280901,0,0,0.94280901,0.4166672,0.5752054)" />
  </g>
</svg>
